<svg width="369" height="489" viewBox="0 0 369 489" fill="none" xmlns="http://www.w3.org/2000/svg">
<path d="M359.85 96.1801C350.9 69.8201 334.95 48.2501 313.16 31.1501C293.03 15.3401 269.38 7.89011 244.5 3.49011C221.7 -0.549887 198.7 0.250113 175.76 0.150113C119.44 -0.109887 63.12 0.0501126 6.8 0.0401126C4.69 0.0401126 2.58 0.0401126 0 0.0401126V488.24H88.74V295.47C91.3 295.47 93.42 295.47 95.54 295.47C135.03 295.35 174.52 294.98 214 295.17C247.93 295.33 279.07 286.96 307.12 267.46C330.75 251.04 348.37 229.74 358.29 202.83C371.25 167.65 371.97 131.87 359.85 96.1801ZM89.08 74.7001H95.83L194.94 75.2301C209.31 75.4201 223.42 77.9501 236.69 83.8501C254.31 91.6801 265.61 105.78 270.45 123.66C278.27 152.58 274.46 179.55 250.52 200.67C240.12 209.85 227.58 215.26 214 216.46C195.47 218.09 176.81 218.42 158.2 218.77C137.53 219.15 116.85 219 96.17 219.03H89.08V74.7001Z" fill="#54595B"/>
<path d="M117.84 305.03L272.51 486.33H362.42L209.18 305.03H117.84Z" fill="#E4232C"/>
</svg>
